<svg xmlns="http://www.w3.org/2000/svg" width="55" height="40" enable-background="new 0 0 512 512"
     viewBox="0 0 512 512">
    <path fill="#BFB0CE"
          d="M378.791,42.453H132.208L8.917,256l123.291,213.548h246.583L502.083,256L378.791,42.453z M361.471,439.548   H149.529L43.558,256L149.529,72.453h211.942L467.442,256L361.471,439.548z"/>
    <polygon fill="#191026"
             points="361.699 72.058 149.301 72.058 43.102 256 149.301 439.942 361.699 439.942 467.898 256"/>
    <g>
        <path fill="#BFB0CE"
              d="M219.949 299.614c0-7.142-2.521-12.625-7.563-16.45-5.042-3.823-14.118-7.856-27.228-12.101-13.11-4.243-23.489-8.424-31.135-12.543-20.842-11.26-31.261-26.428-31.261-45.505 0-9.915 2.793-18.761 8.382-26.534 5.588-7.772 13.614-13.844 24.076-18.215 10.462-4.369 22.205-6.555 35.232-6.555 13.11 0 24.79 2.375 35.043 7.122 10.252 4.749 18.215 11.451 23.887 20.105 5.672 8.656 8.508 18.488 8.508 29.497h-37.816c0-8.402-2.647-14.938-7.941-19.602-5.294-4.664-12.731-6.996-22.311-6.996-9.246 0-16.431 1.953-21.555 5.861-5.127 3.908-7.689 9.057-7.689 15.441 0 5.968 3.004 10.967 9.013 15 6.007 4.034 14.853 7.815 26.534 11.346 21.512 6.472 37.186 14.495 47.018 24.075s14.748 21.515 14.748 35.8c0 15.883-6.009 28.342-18.025 37.375-12.019 9.034-28.194 13.551-48.53 13.551-14.118 0-26.976-2.585-38.573-7.753-11.597-5.168-20.442-12.247-26.534-21.24-6.094-8.99-9.139-19.412-9.139-31.261h37.942c0 20.253 12.101 30.379 36.304 30.379 8.991 0 16.008-1.828 21.051-5.483C217.428 311.274 219.949 306.169 219.949 299.614zM337.809 320.917c6.723 0 12.184-1.848 16.387-5.546 4.201-3.697 6.386-8.613 6.555-14.748h34.161c-.085 9.245-2.606 17.71-7.563 25.399-4.959 7.689-11.744 13.657-20.357 17.899-8.615 4.242-18.132 6.366-28.551 6.366-19.497 0-34.876-6.196-46.136-18.594-11.263-12.395-16.892-29.516-16.892-51.366v-2.396c0-21.007 5.588-37.772 16.766-50.295 11.175-12.521 26.513-18.781 46.009-18.781 17.059 0 30.735 4.853 41.03 14.559 10.294 9.706 15.524 22.627 15.694 38.762H360.75c-.169-7.095-2.354-12.861-6.555-17.297-4.203-4.436-9.749-6.654-16.639-6.654-8.489 0-14.896 3.095-19.224 9.279-4.329 6.187-6.491 16.224-6.491 30.109v3.787c0 14.057 2.143 24.157 6.429 30.3C322.557 317.847 329.067 320.917 337.809 320.917z"/>
    </g>
</svg>
