<svg xmlns="http://www.w3.org/2000/svg" width="55" height="40" viewBox="0 0 512 380">
    <g id="Group_93" data-name="Group 93" transform="translate(-2878 -3059)">
        <g id="Rectangle_138" data-name="Rectangle 138" transform="translate(2878 3073)" fill="#fff" stroke="#707070" stroke-width="1">
            <rect width="440" height="357" x="2" y="0.5" rx="118" stroke="none"/>
            <rect x="0.8" y="0.5" width="511" height="356" rx="200" fill="none"/>
        </g>
        <path id="as" d="M157.52,272h36.96L176,218.78ZM352,256a24,24,0,1,0,24,24A24.032,24.032,0,0,0,352,256ZM464,64H48A48.012,48.012,0,0,0,0,112V400a48.012,48.012,0,0,0,48,48H464a48.012,48.012,0,0,0,48-48V112A48.012,48.012,0,0,0,464,64ZM250.58,352H233.64a16.022,16.022,0,0,1-15.12-10.75L211.15,320H140.86l-7.38,21.25A16,16,0,0,1,118.36,352H101.42A16,16,0,0,1,86.3,330.75L140,176.12A24,24,0,0,1,162.67,160h26.66A23.991,23.991,0,0,1,212,176.134L265.69,330.75A16,16,0,0,1,250.58,352ZM424,336a16,16,0,0,1-16,16H392a15.754,15.754,0,0,1-11.98-5.68A72.183,72.183,0,1,1,376,212.42V176a16,16,0,0,1,16-16h16a16,16,0,0,1,16,16Z" transform="translate(2878 2995)" fill="#2563eb"/>
    </g>
</svg>
